<?xml version="1.0" encoding="UTF-8"?>
<svg viewBox="0 0 300 300" xmlns="http://www.w3.org/2000/svg">
 <defs>
  <filter id="a">
   <feGaussianBlur stdDeviation="2.26786"/>
  </filter>
 </defs>
 <g fill="#784421" filter="url(#a)">
  <path d="m214.54 245.47-0.20981-206.85s-80.619-13.759-78.836 0.58593c4.9199 39.568 15.658 145.86 15.658 145.86l6.9993 59.615 56.388 0.79575z" fill-rule="evenodd"/>
  <path d="m72.737 104.69c2.2818-10.192 21.26-14.925 32.583-14.962l7.197 35.913c-4.5458 4.6564-17.602 8.4496-24.454 4.0405-1.022 25.795-0.73388 64.521 10.678 87.926 6.6292-3.2153 19.098-7.8714 23.418-2.0074l1.4479 33.859c-54.781 60.044-58.031-112.47-50.87-144.77z" fill-rule="evenodd"/>
  <path transform="matrix(-.10717 -.99424 .99927 .038249 0 0)" d="m-152.43 125.02h11.303v6.3839h-11.303z"/>
  <path transform="matrix(-.10717 -.99424 .99927 .038249 0 0)" d="m-138.13 124.9h11.303v6.3839h-11.303z"/>
  <path transform="matrix(-.10717 -.99424 .99927 .038249 0 0)" d="m-123.27 124.86h11.303v6.3839h-11.303z"/>
  <path transform="matrix(-.10717 -.99424 .99927 .038249 0 0)" d="m-108.42 124.83h11.303v6.3839h-11.303z"/>
  <path transform="matrix(-1.7019e-7 -1 1 0 0 0)" d="m-279.5 214.38h245.94v16.502h-245.94z" stroke="#0e0101" stroke-linejoin="round" stroke-width=".442"/>
  <path transform="matrix(.49485,.86898,.80258,-.59654,0,0)" d="m285.4-6.7743a1.468 1.502 0 0 1 1.468 1.502v1.502a1.468 1.502 0 0 1 -1.468 1.502 1.468 1.502 0 0 1 -1.468 -1.502v-1.502a1.468 1.502 0 0 1 1.468 -1.502" stroke="#0e0101" stroke-linejoin="round" stroke-width=".20181"/>
  <path transform="matrix(.49485,.86898,.80258,-.59654,0,0)" d="m288.19-6.7394a1.468 1.502 0 0 1 1.468 1.502v1.502a1.468 1.502 0 0 1 -1.468 1.502 1.468 1.502 0 0 1 -1.468 -1.502v-1.502a1.468 1.502 0 0 1 1.468 -1.502" stroke="#0e0101" stroke-linejoin="round" stroke-width=".20181"/>
  <path transform="matrix(.49485,.86898,.80258,-.59654,0,0)" d="m285.4-6.7743a1.468 1.502 0 0 1 1.468 1.502v1.502a1.468 1.502 0 0 1 -1.468 1.502 1.468 1.502 0 0 1 -1.468 -1.502v-1.502a1.468 1.502 0 0 1 1.468 -1.502" stroke="#0e0101" stroke-linejoin="round" stroke-width=".20181"/>
  <path transform="matrix(.49485,.86898,.80258,-.59654,0,0)" d="m291.24-6.9103a1.468 1.502 0 0 1 1.468 1.502v1.502a1.468 1.502 0 0 1 -1.468 1.502 1.468 1.502 0 0 1 -1.468 -1.502v-1.502a1.468 1.502 0 0 1 1.468 -1.502" stroke="#0e0101" stroke-linejoin="round" stroke-width=".20181"/>
  <path transform="matrix(.49485,.86898,.80258,-.59654,0,0)" d="m294.26-6.8554a1.468 1.502 0 0 1 1.468 1.502v1.502a1.468 1.502 0 0 1 -1.468 1.502 1.468 1.502 0 0 1 -1.468 -1.502v-1.502a1.468 1.502 0 0 1 1.468 -1.502" stroke="#0e0101" stroke-linejoin="round" stroke-width=".20181"/>
  <path transform="matrix(.49485,.86898,.80258,-.59654,0,0)" d="m297.48-6.7803a1.468 1.502 0 0 1 1.468 1.502v1.502a1.468 1.502 0 0 1 -1.468 1.502 1.468 1.502 0 0 1 -1.468 -1.502v-1.502a1.468 1.502 0 0 1 1.468 -1.502" stroke="#0e0101" stroke-linejoin="round" stroke-width=".20181"/>
  <path transform="matrix(.49485,.86898,.80258,-.59654,0,0)" d="m300.54-6.3764a1.468 1.502 0 0 1 1.468 1.502v1.502a1.468 1.502 0 0 1 -1.468 1.502 1.468 1.502 0 0 1 -1.468 -1.502v-1.502a1.468 1.502 0 0 1 1.468 -1.502" stroke="#0e0101" stroke-linejoin="round" stroke-width=".20181"/>
  <path transform="matrix(.49485,.86898,.80258,-.59654,0,0)" d="m303.3-5.5408a1.468 1.502 0 0 1 1.468 1.502v1.502a1.468 1.502 0 0 1 -1.468 1.502 1.468 1.502 0 0 1 -1.468 -1.502v-1.502a1.468 1.502 0 0 1 1.468 -1.502" stroke="#0e0101" stroke-linejoin="round" stroke-width=".20181"/>
  <path transform="matrix(.49485,.86898,.80258,-.59654,0,0)" d="m305.9-4.3763a1.468 1.502 0 0 1 1.468 1.502v1.502a1.468 1.502 0 0 1 -1.468 1.502 1.468 1.502 0 0 1 -1.468 -1.502v-1.502a1.468 1.502 0 0 1 1.468 -1.502" stroke="#0e0101" stroke-linejoin="round" stroke-width=".20181"/>
  <path transform="matrix(.49485,.86898,.80258,-.59654,0,0)" d="m308.49-3.2118a1.468 1.502 0 0 1 1.468 1.502v1.502a1.468 1.502 0 0 1 -1.468 1.502 1.468 1.502 0 0 1 -1.468 -1.502v-1.502a1.468 1.502 0 0 1 1.468 -1.502" stroke="#0e0101" stroke-linejoin="round" stroke-width=".20181"/>
  <path transform="matrix(.49485,.86898,.80258,-.59654,0,0)" d="m310.8-1.6155a1.468 1.502 0 0 1 1.468 1.502v1.502a1.468 1.502 0 0 1 -1.468 1.502 1.468 1.502 0 0 1 -1.468 -1.502v-1.502a1.468 1.502 0 0 1 1.468 -1.502" stroke="#0e0101" stroke-linejoin="round" stroke-width=".20181"/>
  <path transform="matrix(.49485,.86898,.80258,-.59654,0,0)" d="m313.32 0.57561a1.468 1.502 0 0 1 1.468 1.502v1.502a1.468 1.502 0 0 1 -1.468 1.502 1.468 1.502 0 0 1 -1.468 -1.502v-1.502a1.468 1.502 0 0 1 1.468 -1.502" stroke="#0e0101" stroke-linejoin="round" stroke-width=".20181"/>
  <path transform="matrix(.49485,.86898,.80258,-.59654,0,0)" d="m315.69 3.6704a1.468 1.502 0 0 1 1.468 1.502v1.502a1.468 1.502 0 0 1 -1.468 1.502 1.468 1.502 0 0 1 -1.468 -1.502v-1.502a1.468 1.502 0 0 1 1.468 -1.502" stroke="#0e0101" stroke-linejoin="round" stroke-width=".20181"/>
  <path transform="matrix(.83336,.55273,.54026,-.8415,0,0)" d="m284.24-138.35a1.3598 1.6098 0 0 1 1.3598 1.6098v1.6098a1.3598 1.6098 0 0 1 -1.3598 1.6098 1.3598 1.6098 0 0 1 -1.3598 -1.6098v-1.6098a1.3598 1.6098 0 0 1 1.3598 -1.6098" stroke="#0e0101" stroke-linejoin="round" stroke-width=".20107"/>
  <path transform="matrix(.83336,.55273,.54026,-.8415,0,0)" d="m285.6-135.66a1.3598 1.6098 0 0 1 1.3598 1.6098v1.6098a1.3598 1.6098 0 0 1 -1.3598 1.6098 1.3598 1.6098 0 0 1 -1.3598 -1.6098v-1.6098a1.3598 1.6098 0 0 1 1.3598 -1.6098" stroke="#0e0101" stroke-linejoin="round" stroke-width=".20107"/>
  <path transform="matrix(.83336,.55273,.54026,-.8415,0,0)" d="m287.31-132.74a1.3598 1.6098 0 0 1 1.3598 1.6098v1.6098a1.3598 1.6098 0 0 1 -1.3598 1.6098 1.3598 1.6098 0 0 1 -1.3598 -1.6098v-1.6098a1.3598 1.6098 0 0 1 1.3598 -1.6098" stroke="#0e0101" stroke-linejoin="round" stroke-width=".20107"/>
  <path transform="matrix(.2261,.9741,.94265,-.33379,0,0)" d="m281.19 76.741h0.29448a1.4123 1.4123 0 0 1 1.4123 1.4123v1.4123a1.4123 1.4123 0 0 1 -1.4123 1.4123h-0.29448a1.4123 1.4123 0 0 1 -1.4123 -1.4123v-1.4123a1.4123 1.4123 0 0 1 1.4123 -1.4123" stroke="#0e0101" stroke-linejoin="round" stroke-width=".2017"/>
  <path d="m122.81 250.13c-0.17916 4.3241 10.028-12.513 14.194-5.7648l0.34856 1.298c-2.859-4.6472-17.621 9.5925-17.103 2.4396l2.5603 2.0272z" fill-rule="evenodd" stroke="#000" stroke-width=".87519"/>
  <path d="m172.03 245.73c0.95429 4.9844 1.4546 10.099-1.6713 20.072l-0.13124 1.6947c2.1424-6.8624 4.5008-13.655 2.6919-21.791l-0.88935 0.02453z" fill-rule="evenodd" stroke="#000"/>
  <path d="m214.54 245.47-0.20981-206.85s-80.619-13.759-78.836 0.58593c4.9199 39.568 15.658 145.86 15.658 145.86l6.9993 59.615 56.388 0.79575z" fill-rule="evenodd"/>
  <path d="m72.737 104.69c2.2818-10.192 21.26-14.925 32.583-14.962l7.197 35.913c-4.5458 4.6564-17.602 8.4496-24.454 4.0405-1.022 25.795-0.73388 64.521 10.678 87.926 6.6292-3.2153 19.098-7.8714 23.418-2.0074l1.4479 33.859c-54.781 60.044-58.031-112.47-50.87-144.77z" fill-rule="evenodd"/>
  <path d="m112.08 255.6-2.3203-39.31 4.2475-3.9459 2.3816 42.799-4.3088 0.45667z" fill-rule="evenodd" stroke="#000" stroke-width=".024"/>
  <text transform="scale(1.5372 .65055)" x="127.55019" y="116.59812" font-family="Bitstream Vera Sans" font-size="33.818" font-weight="bold" writing-mode="tb-rl">
   <tspan x="116.59812" y="127.55019" fill="#784421">Phone</tspan>
  </text>
  <path d="m100 130.09-7.7623-34.874 3.2338-4.1484 8.3217 37.99-3.7933 1.0321z" fill-rule="evenodd" stroke="#000" stroke-width=".02177"/>
 </g>
 <g transform="translate(0,-4)">
  <path d="m214.54 245.47-0.20981-206.85s-80.619-13.759-78.836 0.58593c4.9199 39.568 15.658 145.86 15.658 145.86l6.9993 59.615 56.388 0.79575z" fill="#fc0" fill-rule="evenodd"/>
  <path d="m72.737 104.69c2.2818-10.192 21.26-14.925 32.583-14.962l7.197 35.913c-4.5458 4.6564-17.602 8.4496-24.454 4.0405-1.022 25.795-0.73388 64.521 10.678 87.926 6.6292-3.2153 19.098-7.8714 23.418-2.0074l1.4479 33.859c-54.781 60.044-58.031-112.47-50.87-144.77z" fill="#909080" fill-rule="evenodd"/>
  <path transform="matrix(-.10717 -.99424 .99927 .038249 0 0)" d="m-152.43 125.02h11.303v6.3839h-11.303z" fill="#908470"/>
  <path transform="matrix(-.10717 -.99424 .99927 .038249 0 0)" d="m-138.13 124.9h11.303v6.3839h-11.303z" fill="#908470"/>
  <path transform="matrix(-.10717 -.99424 .99927 .038249 0 0)" d="m-123.27 124.86h11.303v6.3839h-11.303z" fill="#908470"/>
  <path transform="matrix(-.10717 -.99424 .99927 .038249 0 0)" d="m-108.42 124.83h11.303v6.3839h-11.303z" fill="#908470"/>
  <path transform="matrix(-1.7019e-7 -1 1 0 0 0)" d="m-279.5 214.38h245.94v16.502h-245.94z" fill="#483e37" stroke="#0e0101" stroke-linejoin="round" stroke-width=".442"/>
  <path transform="matrix(.49485,.86898,.80258,-.59654,0,0)" d="m285.4-6.7743a1.468 1.502 0 0 1 1.468 1.502v1.502a1.468 1.502 0 0 1 -1.468 1.502 1.468 1.502 0 0 1 -1.468 -1.502v-1.502a1.468 1.502 0 0 1 1.468 -1.502" fill="#908c7c" stroke="#0e0101" stroke-linejoin="round" stroke-width=".20181"/>
  <path transform="matrix(.49485,.86898,.80258,-.59654,0,0)" d="m288.19-6.7394a1.468 1.502 0 0 1 1.468 1.502v1.502a1.468 1.502 0 0 1 -1.468 1.502 1.468 1.502 0 0 1 -1.468 -1.502v-1.502a1.468 1.502 0 0 1 1.468 -1.502" fill="#908c7c" stroke="#0e0101" stroke-linejoin="round" stroke-width=".20181"/>
  <path transform="matrix(.49485,.86898,.80258,-.59654,0,0)" d="m285.4-6.7743a1.468 1.502 0 0 1 1.468 1.502v1.502a1.468 1.502 0 0 1 -1.468 1.502 1.468 1.502 0 0 1 -1.468 -1.502v-1.502a1.468 1.502 0 0 1 1.468 -1.502" fill="#908c7c" stroke="#0e0101" stroke-linejoin="round" stroke-width=".20181"/>
  <path transform="matrix(.49485,.86898,.80258,-.59654,0,0)" d="m291.24-6.9103a1.468 1.502 0 0 1 1.468 1.502v1.502a1.468 1.502 0 0 1 -1.468 1.502 1.468 1.502 0 0 1 -1.468 -1.502v-1.502a1.468 1.502 0 0 1 1.468 -1.502" fill="#908c7c" stroke="#0e0101" stroke-linejoin="round" stroke-width=".20181"/>
  <path transform="matrix(.49485,.86898,.80258,-.59654,0,0)" d="m294.26-6.8554a1.468 1.502 0 0 1 1.468 1.502v1.502a1.468 1.502 0 0 1 -1.468 1.502 1.468 1.502 0 0 1 -1.468 -1.502v-1.502a1.468 1.502 0 0 1 1.468 -1.502" fill="#908c7c" stroke="#0e0101" stroke-linejoin="round" stroke-width=".20181"/>
  <path transform="matrix(.49485,.86898,.80258,-.59654,0,0)" d="m297.48-6.7803a1.468 1.502 0 0 1 1.468 1.502v1.502a1.468 1.502 0 0 1 -1.468 1.502 1.468 1.502 0 0 1 -1.468 -1.502v-1.502a1.468 1.502 0 0 1 1.468 -1.502" fill="#908c7c" stroke="#0e0101" stroke-linejoin="round" stroke-width=".20181"/>
  <path transform="matrix(.49485,.86898,.80258,-.59654,0,0)" d="m300.54-6.3764a1.468 1.502 0 0 1 1.468 1.502v1.502a1.468 1.502 0 0 1 -1.468 1.502 1.468 1.502 0 0 1 -1.468 -1.502v-1.502a1.468 1.502 0 0 1 1.468 -1.502" fill="#908c7c" stroke="#0e0101" stroke-linejoin="round" stroke-width=".20181"/>
  <path transform="matrix(.49485,.86898,.80258,-.59654,0,0)" d="m303.3-5.5408a1.468 1.502 0 0 1 1.468 1.502v1.502a1.468 1.502 0 0 1 -1.468 1.502 1.468 1.502 0 0 1 -1.468 -1.502v-1.502a1.468 1.502 0 0 1 1.468 -1.502" fill="#908c7c" stroke="#0e0101" stroke-linejoin="round" stroke-width=".20181"/>
  <path transform="matrix(.49485,.86898,.80258,-.59654,0,0)" d="m305.9-4.3763a1.468 1.502 0 0 1 1.468 1.502v1.502a1.468 1.502 0 0 1 -1.468 1.502 1.468 1.502 0 0 1 -1.468 -1.502v-1.502a1.468 1.502 0 0 1 1.468 -1.502" fill="#908c7c" stroke="#0e0101" stroke-linejoin="round" stroke-width=".20181"/>
  <path transform="matrix(.49485,.86898,.80258,-.59654,0,0)" d="m308.49-3.2118a1.468 1.502 0 0 1 1.468 1.502v1.502a1.468 1.502 0 0 1 -1.468 1.502 1.468 1.502 0 0 1 -1.468 -1.502v-1.502a1.468 1.502 0 0 1 1.468 -1.502" fill="#908c7c" stroke="#0e0101" stroke-linejoin="round" stroke-width=".20181"/>
  <path transform="matrix(.49485,.86898,.80258,-.59654,0,0)" d="m310.8-1.6155a1.468 1.502 0 0 1 1.468 1.502v1.502a1.468 1.502 0 0 1 -1.468 1.502 1.468 1.502 0 0 1 -1.468 -1.502v-1.502a1.468 1.502 0 0 1 1.468 -1.502" fill="#908c7c" stroke="#0e0101" stroke-linejoin="round" stroke-width=".20181"/>
  <path transform="matrix(.49485,.86898,.80258,-.59654,0,0)" d="m313.32 0.57561a1.468 1.502 0 0 1 1.468 1.502v1.502a1.468 1.502 0 0 1 -1.468 1.502 1.468 1.502 0 0 1 -1.468 -1.502v-1.502a1.468 1.502 0 0 1 1.468 -1.502" fill="#908c7c" stroke="#0e0101" stroke-linejoin="round" stroke-width=".20181"/>
  <path transform="matrix(.49485,.86898,.80258,-.59654,0,0)" d="m315.69 3.6704a1.468 1.502 0 0 1 1.468 1.502v1.502a1.468 1.502 0 0 1 -1.468 1.502 1.468 1.502 0 0 1 -1.468 -1.502v-1.502a1.468 1.502 0 0 1 1.468 -1.502" fill="#908c7c" stroke="#0e0101" stroke-linejoin="round" stroke-width=".20181"/>
  <path transform="matrix(.83336,.55273,.54026,-.8415,0,0)" d="m284.24-138.35a1.3598 1.6098 0 0 1 1.3598 1.6098v1.6098a1.3598 1.6098 0 0 1 -1.3598 1.6098 1.3598 1.6098 0 0 1 -1.3598 -1.6098v-1.6098a1.3598 1.6098 0 0 1 1.3598 -1.6098" fill="#908c7c" stroke="#0e0101" stroke-linejoin="round" stroke-width=".20107"/>
  <path transform="matrix(.83336,.55273,.54026,-.8415,0,0)" d="m285.6-135.66a1.3598 1.6098 0 0 1 1.3598 1.6098v1.6098a1.3598 1.6098 0 0 1 -1.3598 1.6098 1.3598 1.6098 0 0 1 -1.3598 -1.6098v-1.6098a1.3598 1.6098 0 0 1 1.3598 -1.6098" fill="#908c7c" stroke="#0e0101" stroke-linejoin="round" stroke-width=".20107"/>
  <path transform="matrix(.83336,.55273,.54026,-.8415,0,0)" d="m287.31-132.74a1.3598 1.6098 0 0 1 1.3598 1.6098v1.6098a1.3598 1.6098 0 0 1 -1.3598 1.6098 1.3598 1.6098 0 0 1 -1.3598 -1.6098v-1.6098a1.3598 1.6098 0 0 1 1.3598 -1.6098" fill="#908c7c" stroke="#0e0101" stroke-linejoin="round" stroke-width=".20107"/>
  <path transform="matrix(.2261,.9741,.94265,-.33379,0,0)" d="m281.19 76.741h0.29448a1.4123 1.4123 0 0 1 1.4123 1.4123v1.4123a1.4123 1.4123 0 0 1 -1.4123 1.4123h-0.29448a1.4123 1.4123 0 0 1 -1.4123 -1.4123v-1.4123a1.4123 1.4123 0 0 1 1.4123 -1.4123" fill="#908c7c" stroke="#0e0101" stroke-linejoin="round" stroke-width=".2017"/>
  <path d="m122.81 250.13c-0.17916 4.3241 10.028-12.513 14.194-5.7648l0.34856 1.298c-2.859-4.6472-17.621 9.5925-17.103 2.4396l2.5603 2.0272z" fill="#908c7c" fill-rule="evenodd" stroke="#000" stroke-width=".87519"/>
  <path d="m172.03 245.73c0.95429 4.9844 1.4546 10.099-1.6713 20.072l-0.13124 1.6947c2.1424-6.8624 4.5008-13.655 2.6919-21.791l-0.88935 0.02453z" fill="#241f1c" fill-rule="evenodd" stroke="#000"/>
  <path d="m214.54 245.47-0.20981-206.85s-80.619-13.759-78.836 0.58593c4.9199 39.568 15.658 145.86 15.658 145.86l6.9993 59.615 56.388 0.79575z" fill="#fc0" fill-rule="evenodd" stroke="#000" stroke-width=".5"/>
  <path d="m72.737 104.69c2.2818-10.192 21.26-14.925 32.583-14.962l7.197 35.913c-4.5458 4.6564-17.602 8.4496-24.454 4.0405-1.022 25.795-0.73388 64.521 10.678 87.926 6.6292-3.2153 19.098-7.8714 23.418-2.0074l1.4479 33.859c-54.781 60.044-58.031-112.47-50.87-144.77z" fill="#241f1c" fill-rule="evenodd"/>
  <path d="m112.08 255.6-2.3203-39.31 4.2475-3.9459 2.3816 42.799-4.3088 0.45667z" fill="#c4c4a0" fill-rule="evenodd" stroke="#000" stroke-width=".024"/>
  <path d="m100 130.09-7.7623-34.874 3.2338-4.1484 8.3217 37.99-3.7933 1.0321z" fill="#c4c4a0" fill-rule="evenodd" stroke="#000" stroke-width=".02177"/>
 </g>
</svg>
